<?xml version="1.0" encoding="UTF-8"?>
<svg id="Layer_2" data-name="Layer 2" xmlns="http://www.w3.org/2000/svg" viewBox="0 0 270.95 198.22">
  <defs>
    <style>
      .cls-1 {
        fill: #fdd468;
      }

      .cls-1, .cls-2, .cls-3, .cls-4 {
        stroke-width: 0px;
      }

      .cls-2 {
        fill: #7fd8ff;
      }

      .cls-3 {
        fill: #a99bf9;
      }

      .cls-4 {
        fill: #f9b09d;
      }
    </style>
  </defs>
  <g id="Layer_1-2" data-name="Layer 1">
    <g>
      <rect class="cls-2" x="154.87" width="116.07" height="83.67" rx="12" ry="12"/>
      <path class="cls-4" d="M270.95,109.17v77.05c0,6.6-5.4,12-12,12H91.57c-6.6,0-12-5.4-12-12v-68.3c0-3.94,1.11-7.63,3.03-10.77,2.3-3.74,5.74-6.71,9.82-8.4,2.44-1.02,5.1-1.57,7.9-1.57h158.62c6.6,0,12,5.4,12,12Z"/>
      <rect class="cls-1" x=".07" y="97.17" width="65.42" height="101.05" rx="12" ry="12"/>
      <path class="cls-3" d="M123.38,79.59s.02-.06.02-.09h-20.09c.86-2.97,1.33-6.12,1.33-9.39,0-3.49-.53-6.85-1.5-10.03-.68-2.14-1.56-4.21-2.63-6.16-3.19-5.86-8.05-10.66-13.97-13.8-1.95-1.03-4.02-1.9-6.2-2.52-3.04-.92-6.27-1.41-9.61-1.41h-.64c-3.34,0-6.57.49-9.61,1.41-2.18.62-4.24,1.48-6.2,2.52-5.91,3.14-10.78,7.94-13.97,13.8-1.07,1.95-1.95,4.02-2.63,6.16-.98,3.17-1.5,6.53-1.5,10.03,0,3.27.47,6.42,1.33,9.39h-20.09s.02.06.02.09l-17.46-.09.11-19.66,17.48.11c1.43-7.43,4.41-14.34,8.6-20.33l-12.28-12.45,13.97-13.8,12.28,12.45c6.05-4.11,12.99-7,20.44-8.35L60.71,0l9.71.06L80.13,0l.11,17.46c7.45,1.35,14.4,4.24,20.44,8.35l12.28-12.45,13.97,13.8-12.28,12.45c4.19,5.99,7.17,12.9,8.6,20.33l17.48-.11.11,19.66-17.46.09Z"/>
    </g>
  </g>
</svg>
